Coordinates
version=1
nRows=26
nColumns=24
inDegrees=yes

Units are S.I. units (second, meters, Newtons, ...)
Angles are in degrees.

endheader
time	pelvis_tilt	pelvis_list	pelvis_rotation	pelvis_tx	pelvis_ty	pelvis_tz	hip_flexion_r	hip_adduction_r	hip_rotation_r	knee_angle_r	ankle_angle_r	subtalar_angle_r	mtp_angle_r	hip_flexion_l	hip_adduction_l	hip_rotation_l	knee_angle_l	ankle_angle_l	subtalar_angle_l	mtp_angle_l	lumbar_extension	lumbar_bending	lumbar_rotation
      0.01000000	     62.82211729	     -8.93595163	     -5.05646011	      0.41900959	      1.04848606	     -0.34831232	     12.52249658	     -0.88489369	     12.13870953	    -16.56076746	     -4.51651366	     40.64504053	      0.00000000	      1.33707385	    -19.27288674	      0.55167386	    -62.03772417	     23.20397407	     31.23153813	      0.00000000	      0.00000000	      0.00000000	      0.00000000
      0.02000000	     62.79789577	     -8.94582763	     -5.06763777	      0.41905607	      1.04854283	     -0.34835484	     12.51745870	     -0.87807466	     12.12922269	    -16.63026989	     -4.51621637	     40.66736637	      0.00000000	      1.35608850	    -19.27462958	      0.55598164	    -62.03994114	     23.19973838	     31.23066085	      0.00000000	      0.00000000	      0.00000000	      0.00000000
      0.03000000	     62.77793465	     -8.95501785	     -5.06990086	      0.41906755	      1.04856619	     -0.34838189	     12.51724243	     -0.86885486	     12.12893293	    -16.71840245	     -4.51508913	     40.69708156	      0.00000000	      1.37614684	    -19.27802394	      0.55864026	    -62.03830306	     23.19550323	     31.22920366	      0.00000000	      0.00000000	      0.00000000	      0.00000000
      0.04000000	     62.75983317	     -8.96478076	     -5.06796312	      0.41905430	      1.04856708	     -0.34839357	     12.51957194	     -0.85879586	     12.13502816	    -16.81947546	     -4.51130835	     40.73480177	      0.00000000	      1.39681956	    -19.28353365	      0.56035942	    -62.03489535	     23.19153663	     31.22746658	      0.00000000	      0.00000000	      0.00000000	      0.00000000
      0.05000000	     62.74208388	     -8.97541803	     -5.06578495	      0.41902983	      1.04856315	     -0.34839692	     12.52228859	     -0.84846459	     12.14458945	    -16.92650078	     -4.50311383	     40.78080436	      0.00000000	      1.41744598	    -19.29078445	      0.56145696	    -62.03191860	     23.18810203	     31.22582376	      0.00000000	      0.00000000	      0.00000000	      0.00000000
      0.06000000	     62.72463668	     -8.98624003	     -5.06524690	      0.41901644	      1.04856670	     -0.34839863	     12.52366950	     -0.83744690	     12.15551095	    -17.03360714	     -4.48954364	     40.83458937	      0.00000000	      1.43735057	    -19.29859525	      0.56181092	    -62.03090725	     23.18535325	     31.22461703	      0.00000000	      0.00000000	      0.00000000	      0.00000000
      0.07000000	     62.70830500	     -8.99649516	     -5.06647057	      0.41902557	      1.04857471	     -0.34840072	     12.52231244	     -0.82519343	     12.16677542	    -17.13803146	     -4.47072975	     40.89468527	      0.00000000	      1.45601272	    -19.30572459	      0.56129046	    -62.03227081	     23.18329140	     31.22404798	      0.00000000	      0.00000000	      0.00000000	      0.00000000
      0.08000000	     62.69405991	     -9.00599118	     -5.06869020	      0.41903629	      1.04858032	     -0.34840448	     12.51750388	     -0.81146959	     12.17809862	    -17.24064728	     -4.44775999	     40.95877606	      0.00000000	      1.47295470	    -19.31149594	      0.56018757	    -62.03532478	     23.18176477	     31.22410815	      0.00000000	      0.00000000	      0.00000000	      0.00000000
      0.09000000	     62.68278437	     -9.01490492	     -5.07084460	      0.41902411	      1.04858193	     -0.34840872	     12.50989040	     -0.79642408	     12.18932043	    -17.34486860	     -4.42228539	     41.02411588	      0.00000000	      1.48748429	    -19.31578180	      0.55920318	    -62.03880225	     23.18050246	     31.22457929	      0.00000000	      0.00000000	      0.00000000	      0.00000000
      0.10000000	     62.67508103	     -9.02328683	     -5.07195255	      0.41899555	      1.04857994	     -0.34840947	     12.50140471	     -0.78052116	     12.19999653	    -17.45461745	     -4.39606607	     41.08809066	      0.00000000	      1.49880638	    -19.31869004	      0.55899932	    -62.04152666	     23.17917810	     31.22509815	      0.00000000	      0.00000000	      0.00000000	      0.00000000
      0.11000000	     62.67068598	     -9.03086417	     -5.07155347	      0.41896771	      1.04857701	     -0.34840742	     12.49406021	     -0.76423584	     12.20942886	    -17.57216896	     -4.37054246	     41.14875431	      0.00000000	      1.50670883	    -19.32040244	      0.55976990	    -62.04285627	     23.17748976	     31.22525076	      0.00000000	      0.00000000	      0.00000000	      0.00000000
      0.12000000	     62.66804634	     -9.03722860	     -5.07004947	      0.41894330	      1.04857672	     -0.34840736	     12.48868126	     -0.74775812	     12.21711055	    -17.69645381	     -4.34646390	     41.20520565	      0.00000000	      1.51228618	    -19.32110707	      0.56121214	    -62.04278149	     23.17523730	     31.22466404	      0.00000000	      0.00000000	      0.00000000	      0.00000000
      0.13000000	     62.66453967	     -9.04224807	     -5.06858327	      0.41891839	      1.04857874	     -0.34840903	     12.48466772	     -0.73112135	     12.22329466	    -17.82260905	     -4.32365657	     41.25776296	      0.00000000	      1.51798941	    -19.32095846	      0.56287241	    -62.04183986	     23.17237524	     31.22308647	      0.00000000	      0.00000000	      0.00000000	      0.00000000
      0.14000000	     62.65719853	     -9.04635338	     -5.06840257	      0.41889531	      1.04857949	     -0.34840759	     12.48081080	     -0.71455788	     12.22915725	    -17.94356061	     -4.30104345	     41.30794964	      0.00000000	      1.52685798	    -19.32011272	      0.56452804	    -62.04096882	     23.16903719	     31.22046387	      0.00000000	      0.00000000	      0.00000000	      0.00000000
      0.15000000	     62.64383430	     -9.05029417	     -5.07007737	      0.41888185	      1.04857795	     -0.34840302	     12.47649217	     -0.69854699	     12.23610559	    -18.05361980	     -4.27695185	     41.35828560	      0.00000000	      1.54138985	    -19.31874510	      0.56630272	    -62.04125680	     23.16554265	     31.21700565	      0.00000000	      0.00000000	      0.00000000	      0.00000000
      0.16000000	     62.62423804	     -9.05444620	     -5.07315605	      0.41888177	      1.04857827	     -0.34840186	     12.47246931	     -0.68352171	     12.24432548	    -18.15299309	     -4.24962870	     41.41186145	      0.00000000	      1.56254020	    -19.31702706	      0.56847315	    -62.04360538	     23.16237865	     31.21321796	      0.00000000	      0.00000000	      0.00000000	      0.00000000
      0.17000000	     62.60090024	     -9.05831026	     -5.07656824	      0.41889158	      1.04858403	     -0.34841033	     12.47101782	     -0.66961249	     12.25128999	    -18.25103758	     -4.21779583	     41.47168672	      0.00000000	      1.58896859	    -19.31512633	      0.57110431	    -62.04843868	     23.16014194	     31.20987812	      0.00000000	      0.00000000	      0.00000000	      0.00000000
      0.18000000	     62.57864866	     -9.06085546	     -5.07939731	      0.41890341	      1.04858587	     -0.34842798	     12.47565841	     -0.65664366	     12.25124740	    -18.36581531	     -4.18102993	     41.53986753	      0.00000000	      1.61650752	    -19.31314893	      0.57370416	    -62.05560330	     23.15943279	     31.20793804	      0.00000000	      0.00000000	      0.00000000	      0.00000000
      0.19000000	     62.56316409	     -9.06160219	     -5.08138659	      0.41891076	      1.04856051	     -0.34844614	     12.49054215	     -0.64426237	     12.23652877	    -18.51858192	     -4.13979677	     41.61680919	      0.00000000	      1.63834437	    -19.31097047	      0.57511208	    -62.06445027	     23.16069635	     31.20834880	      0.00000000	      0.00000000	      0.00000000	      0.00000000
      0.20000000	     62.55898195	     -9.06131072	     -5.08289440	      0.41891541	      1.04849806	     -0.34845357	     12.51895354	     -0.63175559	     12.20082378	    -18.72423433	     -4.09516358	     41.70080204	      0.00000000	      1.64695212	    -19.30812976	      0.57379222	    -62.07387684	     23.16403978	     31.21179848	      0.00000000	      0.00000000	      0.00000000	      0.00000000
      0.21000000	     62.56762716	     -9.06121590	     -5.08445433	      0.41892483	      1.04844036	     -0.34844832	     12.56052600	     -0.61751733	     12.14346914	    -18.98135179	     -4.04839963	     41.78826681	      0.00000000	      1.63804236	    -19.30412869	      0.56857569	    -62.08212868	     23.16908693	     31.21836223	      0.00000000	      0.00000000	      0.00000000	      0.00000000
      0.22000000	     62.58618644	     -9.06150949	     -5.08639091	      0.41894183	      1.04846653	     -0.34844340	     12.60837717	     -0.59938424	     12.07267209	    -19.26690271	     -4.00067400	     41.87455892	      0.00000000	      1.61461151	    -19.29930008	      0.55966758	    -62.08661101	     23.17490205	     31.22710437	      0.00000000	      0.00000000	      0.00000000	      0.00000000
      0.23000000	     62.60625191	     -9.06126789	     -5.08875511	      0.41895337	      1.04858520	     -0.34845151	     12.64866359	     -0.57704723	     12.00516598	    -19.54051082	     -3.95297413	     41.95500705	      0.00000000	      1.58762272	    -19.29558479	      0.54938024	    -62.08446904	     23.17994118	     31.23576856	      0.00000000	      0.00000000	      0.00000000	      0.00000000
      0.24000000	     62.61546268	     -9.06070103	     -5.09121343	      0.41893383	      1.04866846	     -0.34845726	     12.66599860	     -0.55504817	     11.96080404	    -19.75961673	     -3.90626429	     42.02590512	      0.00000000	      1.57149449	    -19.29586387	      0.54185082	    -62.07448441	     23.18200143	     31.24076360	      0.00000000	      0.00000000	      0.00000000	      0.00000000
      0.25000000	     62.60488059	     -9.06233260	     -5.09263634	      0.41888344	      1.04862337	     -0.34842878	     12.65519113	     -0.54164833	     11.95344478	    -19.89990300	     -3.86174207	     42.08530578	      0.00000000	      1.57703195	    -19.30140102	      0.54151619	    -62.05961966	     23.17826264	     31.23759531	      0.00000000	      0.00000000	      0.00000000	      0.00000000
      0.26000000	     62.57483809	     -9.06703966	     -5.09132601	      0.41884419	      1.04853318	     -0.34838666	     12.62728606	     -0.54174642	     11.98349503	    -19.96998168	     -3.82094589	     42.13356335	      0.00000000	      1.60751275	    -19.30915873	      0.55118358	    -62.04827245	     23.16561412	     31.22173474	      0.00000000	      0.00000000	      0.00000000	      0.00000000
